G04 #@! TF.GenerationSoftware,KiCad,Pcbnew,(5.1.2-1)-1*
G04 #@! TF.CreationDate,2019-05-30T18:56:24+02:00*
G04 #@! TF.ProjectId,BBC Joystick Connector,42424320-4a6f-4797-9374-69636b20436f,rev?*
G04 #@! TF.SameCoordinates,Original*
G04 #@! TF.FileFunction,Legend,Top*
G04 #@! TF.FilePolarity,Positive*
%FSLAX46Y46*%
G04 Gerber Fmt 4.6, Leading zero omitted, Abs format (unit mm)*
G04 Created by KiCad (PCBNEW (5.1.2-1)-1) date 2019-05-30 18:56:24*
%MOMM*%
%LPD*%
G04 APERTURE LIST*
%ADD10C,0.200000*%
%ADD11C,0.150000*%
G04 APERTURE END LIST*
D10*
X143192571Y-58778857D02*
X143306857Y-58778857D01*
X143421142Y-58836000D01*
X143478285Y-58893142D01*
X143535428Y-59007428D01*
X143592571Y-59236000D01*
X143592571Y-59521714D01*
X143535428Y-59750285D01*
X143478285Y-59864571D01*
X143421142Y-59921714D01*
X143306857Y-59978857D01*
X143192571Y-59978857D01*
X143078285Y-59921714D01*
X143021142Y-59864571D01*
X142964000Y-59750285D01*
X142906857Y-59521714D01*
X142906857Y-59236000D01*
X142964000Y-59007428D01*
X143021142Y-58893142D01*
X143078285Y-58836000D01*
X143192571Y-58778857D01*
X143935428Y-58778857D02*
X144335428Y-59978857D01*
X144735428Y-58778857D01*
X142849714Y-57438857D02*
X142849714Y-56238857D01*
X143306857Y-56238857D01*
X143421142Y-56296000D01*
X143478285Y-56353142D01*
X143535428Y-56467428D01*
X143535428Y-56638857D01*
X143478285Y-56753142D01*
X143421142Y-56810285D01*
X143306857Y-56867428D01*
X142849714Y-56867428D01*
X144449714Y-56810285D02*
X144621142Y-56867428D01*
X144678285Y-56924571D01*
X144735428Y-57038857D01*
X144735428Y-57210285D01*
X144678285Y-57324571D01*
X144621142Y-57381714D01*
X144506857Y-57438857D01*
X144049714Y-57438857D01*
X144049714Y-56238857D01*
X144449714Y-56238857D01*
X144564000Y-56296000D01*
X144621142Y-56353142D01*
X144678285Y-56467428D01*
X144678285Y-56581714D01*
X144621142Y-56696000D01*
X144564000Y-56753142D01*
X144449714Y-56810285D01*
X144049714Y-56810285D01*
X139703428Y-50212571D02*
X139646285Y-50269714D01*
X139474857Y-50326857D01*
X139360571Y-50326857D01*
X139189142Y-50269714D01*
X139074857Y-50155428D01*
X139017714Y-50041142D01*
X138960571Y-49812571D01*
X138960571Y-49641142D01*
X139017714Y-49412571D01*
X139074857Y-49298285D01*
X139189142Y-49184000D01*
X139360571Y-49126857D01*
X139474857Y-49126857D01*
X139646285Y-49184000D01*
X139703428Y-49241142D01*
X140217714Y-50326857D02*
X140217714Y-49126857D01*
X140217714Y-49698285D02*
X140903428Y-49698285D01*
X140903428Y-50326857D02*
X140903428Y-49126857D01*
X141703428Y-49126857D02*
X141817714Y-49126857D01*
X141932000Y-49184000D01*
X141989142Y-49241142D01*
X142046285Y-49355428D01*
X142103428Y-49584000D01*
X142103428Y-49869714D01*
X142046285Y-50098285D01*
X141989142Y-50212571D01*
X141932000Y-50269714D01*
X141817714Y-50326857D01*
X141703428Y-50326857D01*
X141589142Y-50269714D01*
X141532000Y-50212571D01*
X141474857Y-50098285D01*
X141417714Y-49869714D01*
X141417714Y-49584000D01*
X141474857Y-49355428D01*
X141532000Y-49241142D01*
X141589142Y-49184000D01*
X141703428Y-49126857D01*
X143474857Y-49069714D02*
X142446285Y-50612571D01*
X143817714Y-49241142D02*
X143874857Y-49184000D01*
X143989142Y-49126857D01*
X144274857Y-49126857D01*
X144389142Y-49184000D01*
X144446285Y-49241142D01*
X144503428Y-49355428D01*
X144503428Y-49469714D01*
X144446285Y-49641142D01*
X143760571Y-50326857D01*
X144503428Y-50326857D01*
X139703428Y-39544571D02*
X139646285Y-39601714D01*
X139474857Y-39658857D01*
X139360571Y-39658857D01*
X139189142Y-39601714D01*
X139074857Y-39487428D01*
X139017714Y-39373142D01*
X138960571Y-39144571D01*
X138960571Y-38973142D01*
X139017714Y-38744571D01*
X139074857Y-38630285D01*
X139189142Y-38516000D01*
X139360571Y-38458857D01*
X139474857Y-38458857D01*
X139646285Y-38516000D01*
X139703428Y-38573142D01*
X140217714Y-39658857D02*
X140217714Y-38458857D01*
X140217714Y-39030285D02*
X140903428Y-39030285D01*
X140903428Y-39658857D02*
X140903428Y-38458857D01*
X142103428Y-39658857D02*
X141417714Y-39658857D01*
X141760571Y-39658857D02*
X141760571Y-38458857D01*
X141646285Y-38630285D01*
X141532000Y-38744571D01*
X141417714Y-38801714D01*
X143474857Y-38401714D02*
X142446285Y-39944571D01*
X143760571Y-38458857D02*
X144503428Y-38458857D01*
X144103428Y-38916000D01*
X144274857Y-38916000D01*
X144389142Y-38973142D01*
X144446285Y-39030285D01*
X144503428Y-39144571D01*
X144503428Y-39430285D01*
X144446285Y-39544571D01*
X144389142Y-39601714D01*
X144274857Y-39658857D01*
X143932000Y-39658857D01*
X143817714Y-39601714D01*
X143760571Y-39544571D01*
X140182857Y-40998857D02*
X140582857Y-42198857D01*
X140982857Y-40998857D01*
X142068571Y-42198857D02*
X141668571Y-41627428D01*
X141382857Y-42198857D02*
X141382857Y-40998857D01*
X141840000Y-40998857D01*
X141954285Y-41056000D01*
X142011428Y-41113142D01*
X142068571Y-41227428D01*
X142068571Y-41398857D01*
X142011428Y-41513142D01*
X141954285Y-41570285D01*
X141840000Y-41627428D01*
X141382857Y-41627428D01*
X142582857Y-41570285D02*
X142982857Y-41570285D01*
X143154285Y-42198857D02*
X142582857Y-42198857D01*
X142582857Y-40998857D01*
X143154285Y-40998857D01*
X144068571Y-41570285D02*
X143668571Y-41570285D01*
X143668571Y-42198857D02*
X143668571Y-40998857D01*
X144240000Y-40998857D01*
X140182857Y-51666857D02*
X140582857Y-52866857D01*
X140982857Y-51666857D01*
X142068571Y-52866857D02*
X141668571Y-52295428D01*
X141382857Y-52866857D02*
X141382857Y-51666857D01*
X141840000Y-51666857D01*
X141954285Y-51724000D01*
X142011428Y-51781142D01*
X142068571Y-51895428D01*
X142068571Y-52066857D01*
X142011428Y-52181142D01*
X141954285Y-52238285D01*
X141840000Y-52295428D01*
X141382857Y-52295428D01*
X142582857Y-52238285D02*
X142982857Y-52238285D01*
X143154285Y-52866857D02*
X142582857Y-52866857D01*
X142582857Y-51666857D01*
X143154285Y-51666857D01*
X144068571Y-52238285D02*
X143668571Y-52238285D01*
X143668571Y-52866857D02*
X143668571Y-51666857D01*
X144240000Y-51666857D01*
X140125714Y-47444000D02*
X140697142Y-47444000D01*
X140011428Y-47786857D02*
X140411428Y-46586857D01*
X140811428Y-47786857D01*
X141840000Y-46644000D02*
X141725714Y-46586857D01*
X141554285Y-46586857D01*
X141382857Y-46644000D01*
X141268571Y-46758285D01*
X141211428Y-46872571D01*
X141154285Y-47101142D01*
X141154285Y-47272571D01*
X141211428Y-47501142D01*
X141268571Y-47615428D01*
X141382857Y-47729714D01*
X141554285Y-47786857D01*
X141668571Y-47786857D01*
X141840000Y-47729714D01*
X141897142Y-47672571D01*
X141897142Y-47272571D01*
X141668571Y-47272571D01*
X142411428Y-47786857D02*
X142411428Y-46586857D01*
X143097142Y-47786857D01*
X143097142Y-46586857D01*
X143668571Y-47786857D02*
X143668571Y-46586857D01*
X143954285Y-46586857D01*
X144125714Y-46644000D01*
X144240000Y-46758285D01*
X144297142Y-46872571D01*
X144354285Y-47101142D01*
X144354285Y-47272571D01*
X144297142Y-47501142D01*
X144240000Y-47615428D01*
X144125714Y-47729714D01*
X143954285Y-47786857D01*
X143668571Y-47786857D01*
X140125714Y-36776000D02*
X140697142Y-36776000D01*
X140011428Y-37118857D02*
X140411428Y-35918857D01*
X140811428Y-37118857D01*
X141840000Y-35976000D02*
X141725714Y-35918857D01*
X141554285Y-35918857D01*
X141382857Y-35976000D01*
X141268571Y-36090285D01*
X141211428Y-36204571D01*
X141154285Y-36433142D01*
X141154285Y-36604571D01*
X141211428Y-36833142D01*
X141268571Y-36947428D01*
X141382857Y-37061714D01*
X141554285Y-37118857D01*
X141668571Y-37118857D01*
X141840000Y-37061714D01*
X141897142Y-37004571D01*
X141897142Y-36604571D01*
X141668571Y-36604571D01*
X142411428Y-37118857D02*
X142411428Y-35918857D01*
X143097142Y-37118857D01*
X143097142Y-35918857D01*
X143668571Y-37118857D02*
X143668571Y-35918857D01*
X143954285Y-35918857D01*
X144125714Y-35976000D01*
X144240000Y-36090285D01*
X144297142Y-36204571D01*
X144354285Y-36433142D01*
X144354285Y-36604571D01*
X144297142Y-36833142D01*
X144240000Y-36947428D01*
X144125714Y-37061714D01*
X143954285Y-37118857D01*
X143668571Y-37118857D01*
D11*
X136398000Y-60452000D02*
G75*
G03X136398000Y-60452000I-2286000J0D01*
G01*
X136398000Y-36068000D02*
G75*
G03X136398000Y-36068000I-2286000J0D01*
G01*
X148844000Y-55626000D02*
X148844000Y-58166000D01*
X148844000Y-58166000D02*
X151384000Y-58166000D01*
X151384000Y-56642000D02*
X157480000Y-56642000D01*
X157480000Y-56642000D02*
X157480000Y-57150000D01*
X157480000Y-57150000D02*
X151384000Y-57150000D01*
X151384000Y-58166000D02*
X151384000Y-55626000D01*
X151384000Y-60706000D02*
X151384000Y-58166000D01*
X157480000Y-59690000D02*
X151384000Y-59690000D01*
X157480000Y-59182000D02*
X157480000Y-59690000D01*
X151384000Y-59182000D02*
X157480000Y-59182000D01*
X148844000Y-60706000D02*
X151384000Y-60706000D01*
X148844000Y-58166000D02*
X148844000Y-60706000D01*
X148844000Y-58166000D02*
X151384000Y-58166000D01*
X148844000Y-55626000D02*
X151384000Y-55626000D01*
X148844000Y-59690000D02*
X148463000Y-59690000D01*
X148844000Y-59182000D02*
X148463000Y-59182000D01*
X148844000Y-57150000D02*
X148463000Y-57150000D01*
X148844000Y-56642000D02*
X148463000Y-56642000D01*
X151511000Y-56896000D02*
X157353000Y-56896000D01*
X151511000Y-57023000D02*
X151511000Y-56896000D01*
X157353000Y-57023000D02*
X151511000Y-57023000D01*
X157353000Y-56769000D02*
X157353000Y-57023000D01*
X151511000Y-56769000D02*
X157353000Y-56769000D01*
X147320000Y-55346000D02*
X146020000Y-55346000D01*
X146020000Y-55346000D02*
X146020000Y-56896000D01*
X148844000Y-53086000D02*
X151384000Y-53086000D01*
X148844000Y-48006000D02*
X151384000Y-48006000D01*
X148844000Y-48006000D02*
X148844000Y-50546000D01*
X148844000Y-50546000D02*
X151384000Y-50546000D01*
X151384000Y-49022000D02*
X157480000Y-49022000D01*
X157480000Y-49022000D02*
X157480000Y-49530000D01*
X157480000Y-49530000D02*
X151384000Y-49530000D01*
X151384000Y-50546000D02*
X151384000Y-48006000D01*
X151384000Y-53086000D02*
X151384000Y-50546000D01*
X157480000Y-52070000D02*
X151384000Y-52070000D01*
X157480000Y-51562000D02*
X157480000Y-52070000D01*
X151384000Y-51562000D02*
X157480000Y-51562000D01*
X148844000Y-50546000D02*
X148844000Y-53086000D01*
X148844000Y-50546000D02*
X151384000Y-50546000D01*
X148844000Y-45466000D02*
X151384000Y-45466000D01*
X148844000Y-45466000D02*
X148844000Y-48006000D01*
X148844000Y-48006000D02*
X151384000Y-48006000D01*
X151384000Y-46482000D02*
X157480000Y-46482000D01*
X157480000Y-46482000D02*
X157480000Y-46990000D01*
X157480000Y-46990000D02*
X151384000Y-46990000D01*
X151384000Y-48006000D02*
X151384000Y-45466000D01*
X148844000Y-52070000D02*
X148463000Y-52070000D01*
X148844000Y-51562000D02*
X148463000Y-51562000D01*
X148844000Y-49530000D02*
X148463000Y-49530000D01*
X148844000Y-49022000D02*
X148463000Y-49022000D01*
X148844000Y-46990000D02*
X148463000Y-46990000D01*
X148844000Y-46482000D02*
X148463000Y-46482000D01*
X151511000Y-46736000D02*
X157353000Y-46736000D01*
X151511000Y-46863000D02*
X151511000Y-46736000D01*
X157353000Y-46863000D02*
X151511000Y-46863000D01*
X157353000Y-46609000D02*
X157353000Y-46863000D01*
X151511000Y-46609000D02*
X157353000Y-46609000D01*
X147320000Y-45186000D02*
X146020000Y-45186000D01*
X146020000Y-45186000D02*
X146020000Y-46736000D01*
X148844000Y-42926000D02*
X151384000Y-42926000D01*
X148844000Y-37846000D02*
X151384000Y-37846000D01*
X148844000Y-37846000D02*
X148844000Y-40386000D01*
X148844000Y-40386000D02*
X151384000Y-40386000D01*
X151384000Y-38862000D02*
X157480000Y-38862000D01*
X157480000Y-38862000D02*
X157480000Y-39370000D01*
X157480000Y-39370000D02*
X151384000Y-39370000D01*
X151384000Y-40386000D02*
X151384000Y-37846000D01*
X151384000Y-42926000D02*
X151384000Y-40386000D01*
X157480000Y-41910000D02*
X151384000Y-41910000D01*
X157480000Y-41402000D02*
X157480000Y-41910000D01*
X151384000Y-41402000D02*
X157480000Y-41402000D01*
X148844000Y-40386000D02*
X148844000Y-42926000D01*
X148844000Y-40386000D02*
X151384000Y-40386000D01*
X148844000Y-35306000D02*
X151384000Y-35306000D01*
X148844000Y-35306000D02*
X148844000Y-37846000D01*
X148844000Y-37846000D02*
X151384000Y-37846000D01*
X151384000Y-36322000D02*
X157480000Y-36322000D01*
X157480000Y-36322000D02*
X157480000Y-36830000D01*
X157480000Y-36830000D02*
X151384000Y-36830000D01*
X151384000Y-37846000D02*
X151384000Y-35306000D01*
X148844000Y-41910000D02*
X148463000Y-41910000D01*
X148844000Y-41402000D02*
X148463000Y-41402000D01*
X148844000Y-39370000D02*
X148463000Y-39370000D01*
X148844000Y-38862000D02*
X148463000Y-38862000D01*
X148844000Y-36830000D02*
X148463000Y-36830000D01*
X148844000Y-36322000D02*
X148463000Y-36322000D01*
X151511000Y-36576000D02*
X157353000Y-36576000D01*
X151511000Y-36703000D02*
X151511000Y-36576000D01*
X157353000Y-36703000D02*
X151511000Y-36703000D01*
X157353000Y-36449000D02*
X157353000Y-36703000D01*
X151511000Y-36449000D02*
X157353000Y-36449000D01*
X147320000Y-35026000D02*
X146020000Y-35026000D01*
X146020000Y-35026000D02*
X146020000Y-36576000D01*
X137668000Y-40640000D02*
X119634000Y-40640000D01*
X137668000Y-55880000D02*
X137668000Y-40640000D01*
X119634000Y-55880000D02*
X137668000Y-55880000D01*
X119634000Y-40640000D02*
X119634000Y-55880000D01*
X146986666Y-41088380D02*
X146986666Y-41802666D01*
X146939047Y-41945523D01*
X146843809Y-42040761D01*
X146700952Y-42088380D01*
X146605714Y-42088380D01*
X147367619Y-41088380D02*
X147986666Y-41088380D01*
X147653333Y-41469333D01*
X147796190Y-41469333D01*
X147891428Y-41516952D01*
X147939047Y-41564571D01*
X147986666Y-41659809D01*
X147986666Y-41897904D01*
X147939047Y-41993142D01*
X147891428Y-42040761D01*
X147796190Y-42088380D01*
X147510476Y-42088380D01*
X147415238Y-42040761D01*
X147367619Y-41993142D01*
X128061980Y-49426049D02*
X127585790Y-49759382D01*
X128061980Y-49997478D02*
X127061980Y-49997478D01*
X127061980Y-49616525D01*
X127109600Y-49521287D01*
X127157219Y-49473668D01*
X127252457Y-49426049D01*
X127395314Y-49426049D01*
X127490552Y-49473668D01*
X127538171Y-49521287D01*
X127585790Y-49616525D01*
X127585790Y-49997478D01*
X127061980Y-48711763D02*
X127776266Y-48711763D01*
X127919123Y-48759382D01*
X128014361Y-48854620D01*
X128061980Y-48997478D01*
X128061980Y-49092716D01*
X127395314Y-47807001D02*
X128061980Y-47807001D01*
X127014361Y-48045097D02*
X127728647Y-48283192D01*
X127728647Y-47664144D01*
X127061980Y-46807001D02*
X127061980Y-47283192D01*
X127538171Y-47330811D01*
X127490552Y-47283192D01*
X127442933Y-47187954D01*
X127442933Y-46949859D01*
X127490552Y-46854620D01*
X127538171Y-46807001D01*
X127633409Y-46759382D01*
X127871504Y-46759382D01*
X127966742Y-46807001D01*
X128014361Y-46854620D01*
X128061980Y-46949859D01*
X128061980Y-47187954D01*
X128014361Y-47283192D01*
X127966742Y-47330811D01*
M02*
